<?xml version="1.0" encoding="utf-8"?>
<!-- Generator: Adobe Illustrator 27.5.0, SVG Export Plug-In . SVG Version: 6.00 Build 0)  -->
<svg version="1.1" xmlns="http://www.w3.org/2000/svg" xmlns:xlink="http://www.w3.org/1999/xlink" x="0px" y="0px"
	 viewBox="0 0 3710 3710" style="enable-background:new 0 0 3710 3710;" xml:space="preserve">
<g id="Background">
	<g>
		<g>
			<rect style="fill:#FFFFFF;" width="3710" height="3710"/>
		</g>
	</g>
</g>
<g id="Illustration">
	<g>
		<path style="fill:#F4F7FA;" d="M1096.484,594.24c-96.332,140.426,16.619,368.091-126.321,473.703
			c-139.142,102.806-310.073-65.706-441.205,22.788c-194.527,131.276-159.003,731.973,125.406,1105.197
			c85.531,112.241,156.998,155.913,188.65,282.853c67.966,272.572-170.902,434.714-125.445,569.524
			c102.351,303.542,1676.439,558.249,2308.034-353.994c294.98-426.056,339.116-1041.283,75.56-1508.552
			C2624.921,341.413,1312.637,279.149,1096.484,594.24z"/>
		<g>
			<linearGradient id="SVGID_1_" gradientUnits="userSpaceOnUse" x1="765.8094" y1="1916.7556" x2="1219.6389" y2="1869.3406">
				<stop  offset="0.0036" style="stop-color:#26264F"/>
				<stop  offset="1" style="stop-color:#444B8C"/>
			</linearGradient>
			<path style="fill:url(#SVGID_1_);" d="M578.807,2860.281c-54.216,3.167-98.535-34.731-98.535-84.497V982.115
				c0-49.766,44.319-88.646,98.535-86.678l2559.141,92.865c41.463,1.505,75.057,37.904,75.057,81.144v1558.51
				c0,43.241-33.594,80.384-75.057,82.807L578.807,2860.281z"/>
			
				<linearGradient id="SVGID_00000023282150986277113690000016522195204043930248_" gradientUnits="userSpaceOnUse" x1="1733.234" y1="3303.2251" x2="1829.3871" y2="3165.4924">
				<stop  offset="0" style="stop-color:#444B8C"/>
				<stop  offset="0.9964" style="stop-color:#26264F"/>
			</linearGradient>
			<path style="fill:url(#SVGID_00000023282150986277113690000016522195204043930248_);" d="M2247.263,3058.81
				c-40.904-14.235-71.476-50.657-80.097-95.423l-59.534-309.144l-509.274,18.974l-62.677,322.06
				c-8.778,45.104,26.361,90.355,66.829,106.967l213.069,87.466c39.629,16.268,82.228,22.748,124.567,18.948l450.292-40.417
				c13.164-1.181,23.722-12.037,25.254-25.965c1.532-13.927,10.755-29.566-1.797-33.934L2247.263,3058.81z"/>
			
				<linearGradient id="SVGID_00000088836953526253435100000009190779924971109793_" gradientUnits="userSpaceOnUse" x1="2024.3051" y1="3267.918" x2="1877.1451" y2="2469.0515">
				<stop  offset="0" style="stop-color:#444B8C"/>
				<stop  offset="0.9964" style="stop-color:#26264F"/>
			</linearGradient>
			<path style="fill:url(#SVGID_00000088836953526253435100000009190779924971109793_);" d="M2252.303,3040.009
				c-40.863-14.056-71.405-50.02-80.017-94.224l-59.474-305.258l-496.86,18.756l-62.614,318.011
				c-8.769,44.537,14.433,89.199,54.86,105.602l212.855,86.367c39.59,16.064,82.145,22.462,124.442,18.709l449.838-39.908
				c13.15-1.167,23.698-11.886,25.228-25.639c1.531-13.752-6.38-26.733-18.92-31.047L2252.303,3040.009z"/>
			<g>
				<g>
					
						<linearGradient id="SVGID_00000071547055996993979430000001753006292563247020_" gradientUnits="userSpaceOnUse" x1="2387.3269" y1="1062.5966" x2="3123.759" y2="11.538">
						<stop  offset="0" style="stop-color:#444B8C"/>
						<stop  offset="0.9964" style="stop-color:#26264F"/>
					</linearGradient>
					<path style="fill:url(#SVGID_00000071547055996993979430000001753006292563247020_);" d="M599.068,2860.281
						c-54.216,3.167-98.535-34.731-98.535-84.497V982.115c0-49.766,44.319-88.646,98.535-86.678l2559.141,92.865
						c41.463,1.505,75.057,37.904,75.057,81.144v1558.51c0,43.241-33.594,80.384-75.057,82.807L599.068,2860.281z"/>
					
						<linearGradient id="SVGID_00000140010229062934709700000018030662953741901957_" gradientUnits="userSpaceOnUse" x1="2067.4714" y1="1187.3934" x2="1146.2919" y2="4113.1855">
						<stop  offset="0" style="stop-color:#444B8C"/>
						<stop  offset="0.9964" style="stop-color:#26264F"/>
					</linearGradient>
					<path style="fill:url(#SVGID_00000140010229062934709700000018030662953741901957_);" d="M3158.21,1024.958L599.069,937.252
						c-28.99-0.993-52.551,19.75-52.551,46.333v1395.509v394.201c0,26.585,23.56,46.805,52.551,45.17l2559.141-144.36
						c22.22-1.253,40.194-21.069,40.194-44.263v-356.173V1068.332C3198.404,1045.139,3180.43,1025.72,3158.21,1024.958z"/>
					
						<linearGradient id="SVGID_00000136395287067024350040000004002457732075747764_" gradientUnits="userSpaceOnUse" x1="2513.5754" y1="698.6277" x2="332.5662" y2="4310.1938">
						<stop  offset="0" style="stop-color:#FF9085"/>
						<stop  offset="1" style="stop-color:#FB6FBB"/>
					</linearGradient>
					<path style="fill:url(#SVGID_00000136395287067024350040000004002457732075747764_);" d="M599.068,2665.969
						c-11.288,0.554-20.479-7.412-20.479-17.754V984.609c0-10.341,9.191-18.456,20.479-18.085l2559.141,84.095
						c8.666,0.285,15.711,7.881,15.711,16.93v1455.687c0,9.049-7.045,16.759-15.711,17.185L599.068,2665.969z"/>
				</g>
				<g>
					<polygon style="opacity:0.68;fill:#FFFFFF;" points="3071.058,2450.721 711.325,2554.351 711.325,1215.155 3071.058,1264.684 
											"/>
					
						<linearGradient id="SVGID_00000112632251411671052280000001651401311049493899_" gradientUnits="userSpaceOnUse" x1="1889.3569" y1="1154.7838" x2="1838.3984" y2="1576.6041">
						<stop  offset="0" style="stop-color:#444B8C"/>
						<stop  offset="0.9964" style="stop-color:#26264F"/>
					</linearGradient>
					<polygon style="fill:url(#SVGID_00000112632251411671052280000001651401311049493899_);" points="3071.058,1224.168 
						711.325,1169.406 711.325,1055.034 3071.058,1122.876 					"/>
					<g>
						
							<linearGradient id="SVGID_00000096022189351856373200000016445246958035662254_" gradientUnits="userSpaceOnUse" x1="2992.1873" y1="929.0542" x2="2887.0044" y2="1151.7946">
							<stop  offset="0" style="stop-color:#FF9085"/>
							<stop  offset="1" style="stop-color:#FB6FBB"/>
						</linearGradient>
						<path style="fill:url(#SVGID_00000096022189351856373200000016445246958035662254_);" d="M2891.834,1168.866
							c0,7.232-5.695,12.952-12.726,12.774c-7.036-0.177-12.743-6.193-12.743-13.435c0-7.243,5.707-12.962,12.743-12.774
							C2886.139,1155.619,2891.834,1161.634,2891.834,1168.866z"/>
						
							<linearGradient id="SVGID_00000057118287309925150970000000434117358047552168_" gradientUnits="userSpaceOnUse" x1="3034.4458" y1="951.6713" x2="2929.6084" y2="1173.6799">
							<stop  offset="0" style="stop-color:#FF9085"/>
							<stop  offset="1" style="stop-color:#FB6FBB"/>
						</linearGradient>
						<path style="fill:url(#SVGID_00000057118287309925150970000000434117358047552168_);" d="M2944.059,1170.223
							c0,7.213-5.663,12.916-12.654,12.739c-6.996-0.177-12.671-6.175-12.671-13.397c0-7.222,5.675-12.925,12.671-12.738
							C2938.396,1157.013,2944.059,1163.011,2944.059,1170.223z"/>
						
							<linearGradient id="SVGID_00000022545401977456529040000005536385838235037354_" gradientUnits="userSpaceOnUse" x1="3076.4753" y1="974.1392" x2="2971.98" y2="1195.4235">
							<stop  offset="0" style="stop-color:#FF9085"/>
							<stop  offset="1" style="stop-color:#FB6FBB"/>
						</linearGradient>
						<path style="fill:url(#SVGID_00000022545401977456529040000005536385838235037354_);" d="M2995.989,1171.572
							c0,7.192-5.631,12.879-12.582,12.703c-6.957-0.175-12.6-6.156-12.6-13.358c0-7.202,5.644-12.889,12.6-12.703
							C2990.358,1158.4,2995.989,1164.38,2995.989,1171.572z"/>
					</g>
					<g>
						<polygon style="opacity:0.68;fill:#FFFFFF;" points="2593.464,2236.986 762.794,2294.466 762.794,1249.943 2593.464,1285.37 
													"/>
					</g>
					<g>
						<g>
							<polygon style="opacity:0.68;fill:#FFFFFF;" points="3045.852,1562.015 2625.48,1560.035 2625.48,1285.989 
								3045.852,1294.124 							"/>
						</g>
						<polygon style="fill:#FFFFFF;" points="3045.852,1611.09 2625.48,1610.236 2625.48,1589.716 3045.852,1591.03 						"/>
						<polygon style="fill:#FFFFFF;" points="2889.439,1645.717 2625.48,1645.681 2625.48,1625.161 2889.439,1625.486 						"/>
					</g>
					<g>
						<g>
							<polygon style="opacity:0.68;fill:#FFFFFF;" points="3045.852,1955.002 2625.48,1962.05 2625.48,1688.004 3045.852,1687.111 
															"/>
						</g>
						<polygon style="fill:#FFFFFF;" points="3045.852,2004.077 2625.48,2012.252 2625.48,1991.732 3045.852,1984.017 						"/>
						<polygon style="fill:#FFFFFF;" points="2889.439,2042.064 2625.48,2047.697 2625.48,2027.176 2889.439,2021.833 						"/>
					</g>
					<g>
						<g>
							<polygon style="opacity:0.68;fill:#FFFFFF;" points="3045.852,2347.99 2625.48,2364.066 2625.48,2090.02 3045.852,2080.099 
															"/>
						</g>
						<polygon style="fill:#FFFFFF;" points="3045.852,2397.064 2625.48,2414.267 2625.48,2393.747 3045.852,2377.004 						"/>
						<polygon style="fill:#FFFFFF;" points="2889.439,2438.41 2625.48,2449.711 2625.48,2429.192 2889.439,2418.179 						"/>
					</g>
					<g>
						<polygon style="fill:#FFFFFF;" points="2029.672,2365.126 762.794,2412.148 762.794,2343.481 2029.672,2300.686 						"/>
						<polygon style="fill:#FFFFFF;" points="2593.464,2344.2 2412.712,2350.909 2412.712,2287.747 2593.464,2281.641 						"/>
						<polygon style="fill:#FFFFFF;" points="2384.79,2351.945 2199.973,2358.805 2199.973,2294.933 2384.79,2288.69 						"/>
						<polygon style="fill:#FFFFFF;" points="1342.393,2471.283 762.794,2495.133 762.794,2460.799 1342.393,2437.916 						"/>
					</g>
				</g>
			</g>
		</g>
		<g>
			<g>
				<g>
					
						<linearGradient id="SVGID_00000147197222155549024460000012787285746799586722_" gradientUnits="userSpaceOnUse" x1="1428.4406" y1="391.4937" x2="2789.0332" y2="2031.5581">
						<stop  offset="0.0036" style="stop-color:#E38DDD"/>
						<stop  offset="1" style="stop-color:#9571F6"/>
					</linearGradient>
					<path style="opacity:0.5;fill:url(#SVGID_00000147197222155549024460000012787285746799586722_);" d="M2792.505,593.267
						l-1706.503-23.756c-67.251-0.937-121.959,50.065-121.959,113.925v612.065c0,63.861,54.708,115.069,121.959,114.388
						l1706.503-17.296c60.614-0.615,109.589-50.012,109.589-110.342V704.024C2902.094,643.694,2853.119,594.111,2792.505,593.267z"
						/>
					
						<linearGradient id="SVGID_00000009585296082461989170000004799719214230753677_" gradientUnits="userSpaceOnUse" x1="2925.2659" y1="-76.2518" x2="-367.5611" y2="3456.4548">
						<stop  offset="0.0036" style="stop-color:#E38DDD"/>
						<stop  offset="1" style="stop-color:#9571F6"/>
					</linearGradient>
					<path style="opacity:0.5;fill:url(#SVGID_00000009585296082461989170000004799719214230753677_);" d="M1086.006,1330.195
						c-20.676,0.162-37.516-15.661-37.516-35.271V684.333c0-19.61,16.841-35.37,37.516-35.129l1706.504,19.864
						c18.683,0.218,33.861,15.538,33.861,34.151v579.549c0,18.613-15.179,33.877-33.861,34.023L1086.006,1330.195z"/>
				</g>
				<path style="opacity:0.61;fill:#FFFFFF;" d="M1646.064,709.773l-482.82-4.861c-24.283-0.245-43.994,18.272-43.994,41.356
					v465.764c0,23.084,19.711,41.688,43.994,41.55l482.82-2.739c23.583-0.134,42.677-18.651,42.677-41.359V751.32
					C1688.741,728.612,1669.647,710.01,1646.064,709.773z"/>
				<polygon style="fill:#FFFFFF;" points="2715.34,918.077 1850.352,914.499 1850.352,859.935 2715.34,864.893 				"/>
				<polygon style="fill:#FFFFFF;" points="2715.34,1009.249 1850.352,1008.039 1850.352,953.475 2715.34,956.065 				"/>
				<polygon style="fill:#FFFFFF;" points="2474.115,1100.744 1850.352,1101.579 1850.352,1047.014 2474.115,1047.175 				"/>
			</g>
			<g>
				
					<linearGradient id="SVGID_00000163758721191826466380000009326242106652059583_" gradientUnits="userSpaceOnUse" x1="3006.8813" y1="1553.7197" x2="3148.9861" y2="2132.6633">
					<stop  offset="0" style="stop-color:#AA80F9"/>
					<stop  offset="0.9964" style="stop-color:#6165D7"/>
				</linearGradient>
				<path style="fill:url(#SVGID_00000163758721191826466380000009326242106652059583_);" d="M2935.251,1262.782
					c-9.692,13.569-19.385,27.138-29.076,40.706c42.598,31.651,93.875,80.507,93.042,139.565
					c-1.258,89.237-120.312,118.108-127.934,209.346c-7.722,92.434,102.526,205.816,174.455,191.901
					c91.676-17.735,173.194-252.33,87.228-418.694C3078.267,1319.75,2973.87,1276.577,2935.251,1262.782z"/>
				
					<linearGradient id="SVGID_00000085944907464783963150000000865411292522614711_" gradientUnits="userSpaceOnUse" x1="3004.5381" y1="1466.5414" x2="2897.9263" y2="1251.3794">
					<stop  offset="0.0036" style="stop-color:#F36F56"/>
					<stop  offset="1" style="stop-color:#FFC444"/>
				</linearGradient>
				<path style="fill:url(#SVGID_00000085944907464783963150000000865411292522614711_);" d="M2928.178,1298.428
					c0,0-31.304-10.78-40.405-21.364c-9.1-10.585-1.405-47.491-1.041-76.896c0.363-29.406,13.886,13.208,17.014,22.843
					c3.128,9.636,0.943,31.982,24.944,49.398L2928.178,1298.428z"/>
				
					<linearGradient id="SVGID_00000170278456014583651540000016496783214703474064_" gradientUnits="userSpaceOnUse" x1="1708.135" y1="1469.2146" x2="1694.5029" y2="1305.6289" gradientTransform="matrix(0.9986 0.0537 -0.0537 0.9986 1267.6666 -55.8024)">
					<stop  offset="0" style="stop-color:#AB316D"/>
					<stop  offset="1" style="stop-color:#792D3D"/>
				</linearGradient>
				<path style="fill:url(#SVGID_00000170278456014583651540000016496783214703474064_);" d="M2855.367,1478.368
					c-11.328-22.31-15.999-22.18-18.781-33.956c-6.341-26.835,10.029-60.92,23.909-61.393c8.949-0.305,9.689,13.606,28.633,35.29
					c23.207,26.562,37.292,23.076,50.948,46.134c3.196,5.393,17.572,29.671,8.731,47.789c-11.284,23.125-55.773,26.787-74.37,8.95
					C2865.617,1512.722,2869.322,1505.854,2855.367,1478.368z"/>
				
					<linearGradient id="SVGID_00000080904069259752792060000004429342615405416873_" gradientUnits="userSpaceOnUse" x1="1659.5947" y1="1228.0408" x2="1672.6246" y2="1710.1342" gradientTransform="matrix(0.9986 0.0537 -0.0537 0.9986 1267.6666 -55.8024)">
					<stop  offset="0.0036" style="stop-color:#F36F56"/>
					<stop  offset="1" style="stop-color:#FFC444"/>
				</linearGradient>
				<path style="fill:url(#SVGID_00000080904069259752792060000004429342615405416873_);" d="M2888.719,1502.443
					c0,0-7.946,42.403-2.291,76.88c5.113,31.159,62.835,63.528,73.898,72.811c11.062,9.281-29.344,19.353-66.412,14.502
					c-37.064-4.849-138.554-37.325-153.975-55.426c-15.424-18.099,17.957-9.181,46.03-12.608
					c28.073-3.427,54.872-50.475,55.69-74.487C2842.478,1500.099,2888.719,1502.443,2888.719,1502.443z"/>
				<g>
					
						<linearGradient id="SVGID_00000176763731635432841410000002918736317078843522_" gradientUnits="userSpaceOnUse" x1="885.4979" y1="1296.0391" x2="1014.0681" y2="1431.5587" gradientTransform="matrix(-0.966 -0.2584 -0.2584 0.966 4174.9497 402.9503)">
						<stop  offset="0.0036" style="stop-color:#F36F56"/>
						<stop  offset="1" style="stop-color:#FFC444"/>
					</linearGradient>
					<path style="fill:url(#SVGID_00000176763731635432841410000002918736317078843522_);" d="M2876.631,1534.089
						c0,0-28.375,12.46-53.509-7.637c-22.503-17.996,10.957-73.276,33.848-73.981c7.637-0.236,18.783,5.236,25.365,13.24
						c3.887,4.729,4.118,7.879,10.62,15.481c5.995,7.009,8.633,7.643,9.543,11.047c1.141,4.257-0.818,11.374-16.226,23.609
						c7.678-1.416,14.298,0.608,16.862,5.083c0.408,0.714,1.258,2.947,1.004,5.25
						C2903.216,1534.523,2892.319,1538.385,2876.631,1534.089z"/>
				</g>
				
					<linearGradient id="SVGID_00000098208752006191213470000003547058020285917608_" gradientUnits="userSpaceOnUse" x1="2088.3459" y1="1523.4178" x2="2008.8715" y2="1395.4838">
					<stop  offset="0.0036" style="stop-color:#F36F56"/>
					<stop  offset="1" style="stop-color:#FFC444"/>
				</linearGradient>
				<path style="fill:url(#SVGID_00000098208752006191213470000003547058020285917608_);" d="M2049.827,1413.052
					c0,0-17.015,3.399-22.766-29.355c-4.507-25.675-10.359-32.796-14.592-26.491c-4.232,6.306-0.146,20.626-0.146,20.626
					s-27.138-10.543-43.904-30.915c-16.765-20.372-15.437,1.244-13.204,13.576c2.231,12.332,29.039,43.691,39.397,47.668
					c10.357,3.977,32.448,29.724,32.448,29.724L2049.827,1413.052z"/>
				
					<linearGradient id="SVGID_00000170280325379318401310000009605375074755073709_" gradientUnits="userSpaceOnUse" x1="1446.4688" y1="3365.2478" x2="1360.0735" y2="3080.3762" gradientTransform="matrix(-0.9999 0.0138 0.0138 0.9999 3921.2695 -14.86)">
					<stop  offset="0" style="stop-color:#444B8C"/>
					<stop  offset="0.9964" style="stop-color:#26264F"/>
				</linearGradient>
				<path style="fill:url(#SVGID_00000170280325379318401310000009605375074755073709_);" d="M2603.665,3230.801
					c8.843,18.035,6.361,25.786,4.16,29.195c-6.454,10.004-21.988,0.557-62.544,5.359c-4.757,0.566-13.834,1.792-25.162-0.876
					c-9.705-2.288-21.146-7.453-20.658-10.052c0.178-0.947,1.903-1.326,2.556-1.464c11.254-2.4,81.708-24.021,81.708-24.021
					L2603.665,3230.801z"/>
				
					<linearGradient id="SVGID_00000071558417645685466050000008606648694480965818_" gradientUnits="userSpaceOnUse" x1="-66.1898" y1="2761.1323" x2="-66.1898" y2="2303.5005" gradientTransform="matrix(-0.9819 -0.1895 -0.1895 0.9819 3038.6392 587.9978)">
					<stop  offset="0" style="stop-color:#FFC444"/>
					<stop  offset="0.9964" style="stop-color:#F36F56"/>
				</linearGradient>
				<path style="fill:url(#SVGID_00000071558417645685466050000008606648694480965818_);" d="M2618.931,3194.724l-11.94,31.795
					c-1.831,4.878-6.321,8.274-11.517,8.662c-5.271,0.394-11.012-1.119-11.769-9.261c-1.036-11.131,4.903-39.323,4.903-39.323
					L2618.931,3194.724z"/>
				
					<linearGradient id="SVGID_00000164504731277146712800000017625360322747532460_" gradientUnits="userSpaceOnUse" x1="852.1857" y1="3249.7427" x2="852.1857" y2="2792.0732" gradientTransform="matrix(-0.9999 0.0138 0.0138 0.9999 3921.2695 -14.86)">
					<stop  offset="0" style="stop-color:#FFC444"/>
					<stop  offset="0.9964" style="stop-color:#F36F56"/>
				</linearGradient>
				<polygon style="fill:url(#SVGID_00000164504731277146712800000017625360322747532460_);" points="3092.01,3141.585 
					3109.01,3188.005 3133.716,3184.07 3127.989,3141.087 				"/>
				
					<linearGradient id="SVGID_00000125587689659745580310000016729994713347597471_" gradientUnits="userSpaceOnUse" x1="884.0058" y1="3267.0425" x2="797.6119" y2="2982.1758" gradientTransform="matrix(-0.9999 0.0138 0.0138 0.9999 3921.2695 -14.86)">
					<stop  offset="0" style="stop-color:#444B8C"/>
					<stop  offset="0.9964" style="stop-color:#26264F"/>
				</linearGradient>
				<path style="fill:url(#SVGID_00000125587689659745580310000016729994713347597471_);" d="M3116.705,3213.572
					c11.959-14.19,22.635-12.904,24.79-22.654c1.693-7.662-3-17.059-10.078-20.629c-9.95-5.015-22.001,2.819-24.724,4.587
					c-18.496,12.023-13.458,30.826-30.898,38.98c-3.511,1.641-9.071,3.381-14.935,8.875c-2.489,2.334-8.656,8.111-7.211,12.091
					c1.67,4.603,12.666,4.444,23.12,4.292c12.545-0.181,18.816-0.266,24.849-4.034
					C3109.978,3229.864,3107.475,3224.523,3116.705,3213.572z"/>
				
					<linearGradient id="SVGID_00000162321318689611497100000004086636270460600727_" gradientUnits="userSpaceOnUse" x1="2339.6062" y1="2619.9187" x2="2297.5767" y2="3565.5879" gradientTransform="matrix(-0.9766 0.215 0.215 0.9766 4676.793 -768.2375)">
					<stop  offset="0" style="stop-color:#311944"/>
					<stop  offset="1" style="stop-color:#893976"/>
				</linearGradient>
				<path style="fill:url(#SVGID_00000162321318689611497100000004086636270460600727_);" d="M3053.12,2172.447
					c14.419,92.773,17.398,173.888,15.587,240.885c-1.948,72.072-8.299,85.629-4.075,134.445
					c9.194,106.224,45.579,114.996,73.405,231.863c30.726,129.044,15.076,238.958,8.704,280.96
					c-5.572,36.718-12.92,66.894-18.74,87.983c-10.036,12.606-29.034,11.959-49.011,11.575
					c-28.778-116.88-58.025-226.478-86.802-343.357c-55.496-173.591-110.99-347.175-166.486-520.764
					C2901.509,2254.837,2977.314,2213.646,3053.12,2172.447z"/>
				
					<linearGradient id="SVGID_00000178914819117486868860000006270135856336888242_" gradientUnits="userSpaceOnUse" x1="2339.6062" y1="2619.9187" x2="2297.5767" y2="3565.5874" gradientTransform="matrix(-0.9766 0.215 0.215 0.9766 4676.793 -768.2375)">
					<stop  offset="0" style="stop-color:#AA80F9"/>
					<stop  offset="0.9964" style="stop-color:#6165D7"/>
				</linearGradient>
				<path style="opacity:0.3;fill:url(#SVGID_00000178914819117486868860000006270135856336888242_);" d="M3078.99,3160.157
					c-28.778-116.88-58.025-226.478-86.802-343.357c-55.496-173.591-110.99-347.175-166.486-520.764
					c75.807-41.199,151.613-82.39,227.419-123.589c0.954,6.144,1.729,12.095,2.588,18.14
					c-95.123,119.02-102.989,200.924-92.143,253.816c13.154,64.151,54.224,89.613,64.473,184.244
					c7.328,67.661-10.584,83.105,0.476,143.346c14.244,77.57,55.539,115.078,79.978,156.93
					c23.618,40.449,40.454,100.79,26.191,193.623c-2.322,9.743-4.601,18.496-6.683,26.036
					C3117.965,3161.187,3098.967,3160.543,3078.99,3160.157z"/>
				
					<linearGradient id="SVGID_00000138553740973561167790000010189085612047167165_" gradientUnits="userSpaceOnUse" x1="1778.7406" y1="2703.1055" x2="846.3302" y2="2660.7227" gradientTransform="matrix(-0.9999 0.0138 0.0138 0.9999 3921.2695 -14.86)">
					<stop  offset="0" style="stop-color:#311944"/>
					<stop  offset="1" style="stop-color:#893976"/>
				</linearGradient>
				<path style="fill:url(#SVGID_00000138553740973561167790000010189085612047167165_);" d="M2921.062,2285.257
					c-1.822,44.503-9.227,111.84-38.148,187.084c-38.771,100.871-81.266,125.043-98.858,209.347
					c-18.371,88.035,15.282,122.491,16.993,203.552c1.602,75.918-24.988,184.45-156.557,319.814
					c-21.323-1.938-42.645-3.877-63.967-5.815c17.102-65.607,39.821-167.924,51.251-295.96c5.725-64.137,6.5-110.998,6.901-128.549
					c2.437-106.422,17.576-287.38,74.003-613.865C2782.14,2202.326,2851.601,2243.789,2921.062,2285.257z"/>
				
					<linearGradient id="SVGID_00000176025203493163607730000006570785743546003076_" gradientUnits="userSpaceOnUse" x1="2563.0715" y1="1662.6553" x2="2705.1758" y2="2241.5974">
					<stop  offset="0" style="stop-color:#AA80F9"/>
					<stop  offset="0.9964" style="stop-color:#6165D7"/>
				</linearGradient>
				<path style="fill:url(#SVGID_00000176025203493163607730000006570785743546003076_);" d="M2010.637,1425.607
					c13.569-7.753,27.137-15.508,40.706-23.26c150.22,147.663,281.126,188.38,373.208,198.126
					c139.078,14.721,236.205-41.835,421.709-3.317c58.434,12.132,160.288,34.738,216.765,117.983
					c14.845,21.881,20.127,38.449,44.779,195.42c31.512,200.653,32.633,235.671,28.19,278.875
					c-8.131,79.066-13.058,126.981-49.515,169.39c-96.805,112.616-302.56,54.55-328.357,46.909
					c-47.656-14.115-121.722-36.057-151.149-99.028c-21.818-46.688,1.605-74.18,8.905-165.07
					c3.678-45.787,15.177-188.944-52.799-274.073c-48.849-61.176-116.769-64.869-183.243-85.658
					C2274.635,1749.003,2139.07,1662.655,2010.637,1425.607z"/>
				<g style="opacity:0.3;">
					
						<linearGradient id="SVGID_00000016051828570288928450000014973787172725639856_" gradientUnits="userSpaceOnUse" x1="2422.7954" y1="1658.1069" x2="2957.792" y2="2472.2332">
						<stop  offset="0" style="stop-color:#AA80F9"/>
						<stop  offset="0.9964" style="stop-color:#6165D7"/>
					</linearGradient>
					<path style="fill:url(#SVGID_00000016051828570288928450000014973787172725639856_);" d="M2999.468,2305.188
						c-56.552-51.02-89.953-35.362-124.417-75.875c-79.671-93.656,38.882-247.791-31.031-321.708
						c-55.976-59.185-162.899,6.926-224.002-63.222c-40.527-46.527-4.025-87.705-40.012-135.839
						c-56.952-76.177-184.685-21.607-351.787-69.396c-39.34-11.251-74.185-26.31-104.608-42.603
						c91.763,111.75,181.628,162.03,256.225,185.359c66.475,20.789,134.394,24.482,183.243,85.658
						c67.975,85.13,56.477,228.287,52.799,274.073c-7.3,90.89-30.723,118.382-8.905,165.07
						c29.427,62.971,103.494,84.913,151.149,99.028c23.583,6.985,197.506,56.024,301.155-21.625
						C3045.213,2356.627,3026.038,2329.159,2999.468,2305.188z"/>
				</g>
			</g>
		</g>
		<g>
			
				<linearGradient id="SVGID_00000019680052663317879220000004490673866618928266_" gradientUnits="userSpaceOnUse" x1="91.3166" y1="3055.2493" x2="117.6937" y2="3390.9563" gradientTransform="matrix(-1 0 0 1 1460.9358 0)">
				<stop  offset="0" style="stop-color:#311944"/>
				<stop  offset="1" style="stop-color:#A03976"/>
			</linearGradient>
			<path style="fill:url(#SVGID_00000019680052663317879220000004490673866618928266_);" d="M1318.177,3222.674
				c0,0,106.177,48.257,107.911,55.96c1.734,7.703-68.283-2.582-96.866-1.472c-28.583,1.112-52.096-7.336-49.51-19.443
				c2.589-12.108,12.594-42.558,12.594-42.558L1318.177,3222.674z"/>
			
				<linearGradient id="SVGID_00000176004736115404733110000012722475648053854118_" gradientUnits="userSpaceOnUse" x1="159.4113" y1="3242.1487" x2="154.6159" y2="2894.4609" gradientTransform="matrix(-1 0 0 1 1460.9358 0)">
				<stop  offset="0" style="stop-color:#FFC444"/>
				<stop  offset="0.9964" style="stop-color:#F36F56"/>
			</linearGradient>
			<path style="fill:url(#SVGID_00000176004736115404733110000012722475648053854118_);" d="M1322.061,3183.511l-6.458,47.804
				c0,0-16.809,5.984-28.101-1.091l-4.818-52.431L1322.061,3183.511z"/>
			
				<linearGradient id="SVGID_00000068648156953445015260000011477458228584339347_" gradientUnits="userSpaceOnUse" x1="589.7773" y1="3016.0896" x2="616.1537" y2="3351.7888" gradientTransform="matrix(-1 0 0 1 1460.9358 0)">
				<stop  offset="0" style="stop-color:#311944"/>
				<stop  offset="1" style="stop-color:#A03976"/>
			</linearGradient>
			<path style="fill:url(#SVGID_00000068648156953445015260000011477458228584339347_);" d="M822.033,3184.658l-12.35,19.826
				c-3.455,5.545-4.484,12.219-2.828,18.54c4.319,16.487,12.944,48.617,16.706,56.995c5.121,11.413,73.833,18.192,73.833,18.192
				s6.126-8.622-8.139-19.037c-14.265-10.414-23.435-12.052-28.47-27.421c-5.033-15.366-8.393-58.837-8.393-58.837L822.033,3184.658
				z"/>
			
				<linearGradient id="SVGID_00000132767417895239019000000011139658358387486655_" gradientUnits="userSpaceOnUse" x1="616.2281" y1="3235.8491" x2="611.4325" y2="2888.1497" gradientTransform="matrix(-1 0 0 1 1460.9358 0)">
				<stop  offset="0" style="stop-color:#FFC444"/>
				<stop  offset="0.9964" style="stop-color:#F36F56"/>
			</linearGradient>
			<path style="fill:url(#SVGID_00000132767417895239019000000011139658358387486655_);" d="M873.439,3134.274
				c-4.512,3.597-26.579,70.579-26.579,70.579s-7.143,9.135-20.714-4.346c-13.568-13.481-6.141-6.047-6.141-6.047l2.545-65.881
				L873.439,3134.274z"/>
			
				<linearGradient id="SVGID_00000132809655047474726800000007140293982542728606_" gradientUnits="userSpaceOnUse" x1="76.434" y1="2678.8992" x2="333.5071" y2="2678.8992" gradientTransform="matrix(-1 0 0 1 1460.9358 0)">
				<stop  offset="0" style="stop-color:#AA80F9"/>
				<stop  offset="0.9964" style="stop-color:#6165D7"/>
			</linearGradient>
			<path style="fill:url(#SVGID_00000132809655047474726800000007140293982542728606_);" d="M1380.48,2223.078
				c5.602,142.601,5.83,297.531-2.376,463.043c-9.237,186.379-27.802,358.641-51.199,514.796
				c-8.698,0.278-17.838,0.323-27.384,0.056c-6.447-0.179-12.694-0.493-18.731-0.91c-12.141-32.379-26.492-74.96-39.343-125.82
				c-13.511-53.48-21.662-101.451-27.468-147.324c-20.447-161.516,3.515-175.607-13.079-295.306
				c-14.695-106.011-35.595-110.151-60.129-260.663c-26.619-163.31-6.803-187.811,2.834-196.661
				C1184.63,2136.608,1280.993,2162.26,1380.48,2223.078z"/>
			
				<linearGradient id="SVGID_00000044877807456845276150000000202639904409517462_" gradientUnits="userSpaceOnUse" x1="76.4333" y1="2678.9102" x2="333.5056" y2="2678.9102" gradientTransform="matrix(-1 0 0 1 1460.9358 0)">
				<stop  offset="0" style="stop-color:#444B8C"/>
				<stop  offset="0.9964" style="stop-color:#3E4177"/>
			</linearGradient>
			<path style="opacity:0.3;fill:url(#SVGID_00000044877807456845276150000000202639904409517462_);" d="M1143.606,2174.289
				c39.127-35.94,128.61-14.182,223.12,40.668c-108.726,117.469-120.579,193.672-107.544,243.116
				c14.731,55.882,59.517,71.977,59.347,133.083c-0.21,75.091-67.982,94.983-66.541,174.444
				c0.953,52.544,30.734,51.998,37.766,116.896c8.321,76.787-30.585,103.246-17.983,160.059
				c5.421,24.441,20.895,56.379,64.964,89.279c-3.178,23.33-6.435,46.425-9.831,69.084c-8.694,0.275-17.835,0.323-27.382,0.053
				c-6.447-0.177-12.696-0.491-18.729-0.909c-12.142-32.379-26.494-74.958-39.345-125.819
				c-13.511-53.482-21.662-101.451-27.468-147.326c-20.446-161.515,3.515-175.607-13.079-295.306
				c-14.695-106.011-35.595-110.153-60.127-260.664C1114.155,2207.637,1133.969,2183.137,1143.606,2174.289z"/>
			
				<linearGradient id="SVGID_00000119824430755071341070000011013034870438504593_" gradientUnits="userSpaceOnUse" x1="147.8029" y1="2653.5591" x2="665.3181" y2="2653.5591" gradientTransform="matrix(-1 0 0 1 1460.9358 0)">
				<stop  offset="0" style="stop-color:#AA80F9"/>
				<stop  offset="0.9964" style="stop-color:#6165D7"/>
			</linearGradient>
			<path style="fill:url(#SVGID_00000119824430755071341070000011013034870438504593_);" d="M1313.133,2220.683
				c-93.616,136.981-194.593,307.46-284.895,511.517c-68.242,154.206-117.736,298.991-154.075,428.027
				c-4.917,2.277-16.516,6.818-31.338,4.859c-20.217-2.674-32.333-15.579-35.5-19.181c-14.789-92.5-13.16-170.842-8.14-227.381
				c3.215-36.2,8.902-96.485,31.977-170.907c25.845-83.363,43.614-88.048,77.332-176.244
				c34.997-91.543,26.52-114.388,60.034-228.949c13.768-47.062,36.816-117.096,74.846-200.869
				C1133.294,2167.929,1223.214,2194.307,1313.133,2220.683z"/>
			
				<linearGradient id="SVGID_00000049902111283932517270000001605015377213587605_" gradientUnits="userSpaceOnUse" x1="1276.9819" y1="2632.5957" x2="1467.6134" y2="1553.5527">
				<stop  offset="0" style="stop-color:#311944"/>
				<stop  offset="1" style="stop-color:#893976"/>
			</linearGradient>
			<path style="fill:url(#SVGID_00000049902111283932517270000001605015377213587605_);" d="M1745.351,2394.528
				c-18.004,27.999-79.969,24.725-122.29,9.593c-98.952-35.381-162.279-161.228-167.852-261.371
				c-1.197-21.502-0.439-42.522-4.796-43.161c-10.962-1.613-39.111,128.396-61.207,238.62c-17.764,6.501-44.695,13.406-75.471,8.363
				c-50.369-8.251-56.367-39.544-112.701-59.948c-32.869-11.904-65.074-11.931-129.486-11.987
				c-72.711-0.063-74.714,8.904-88.72,2.398c0,0-3.463-1.9-6.444-4.041c-51.781-37.173,96.354-319.731,53.704-580.435
				c-4.741-28.977-12.009-58.729,4.175-87.733c41.822-74.952,207.11-85.519,309.511-36.194
				c28.067,13.52,75.074,43.099,117.055,74.272c16.779,12.459,34.229,26.405,52.433,42.306
				c44.149,38.561,74.884,65.403,100.207,102.66c102.112,150.239-15.901,275.45,76.731,467.584
				C1722.052,2321.516,1764.206,2365.208,1745.351,2394.528z"/>
			
				<linearGradient id="SVGID_00000054967081108340211690000016293020880809101209_" gradientUnits="userSpaceOnUse" x1="59.7319" y1="1734.213" x2="59.7319" y2="1526.4972" gradientTransform="matrix(-1 0 0 1 1460.9358 0)">
				<stop  offset="0" style="stop-color:#FFC444"/>
				<stop  offset="0.9964" style="stop-color:#F36F56"/>
			</linearGradient>
			<path style="fill:url(#SVGID_00000054967081108340211690000016293020880809101209_);" d="M1470.8,1541.554
				c0,0-26.585,30.185-55.156,45.829c-25.823,14.136-82.745-9.677-95.917-12.472c-13.17-2.797,2.633,32.667,27.482,57.109
				c24.846,24.442,106.977,80.342,129.129,81.277c22.151,0.937-3.567-18.463-17.17-41.051c-13.603-22.589,5.567-69.29,22.735-83.679
				C1499.074,1574.174,1470.8,1541.554,1470.8,1541.554z"/>
			
				<linearGradient id="SVGID_00000109717479028938924200000010364244808273698471_" gradientUnits="userSpaceOnUse" x1="-338.2432" y1="2422.7944" x2="-244.6023" y2="2422.7944" gradientTransform="matrix(-1 0 0 1 1460.9358 0)">
				<stop  offset="0" style="stop-color:#FFC444"/>
				<stop  offset="0.9964" style="stop-color:#F36F56"/>
			</linearGradient>
			<path style="fill:url(#SVGID_00000109717479028938924200000010364244808273698471_);" d="M1705.538,2393.519
				c0,0,38.199,18.245,65.233,22.067c27.033,3.821,32.91,25.415,25.405,33.351c-7.503,7.934-50.525-0.755-64.912-8.849
				C1716.877,2431.996,1705.538,2393.519,1705.538,2393.519z"/>
			<g>
				
					<linearGradient id="SVGID_00000139997113287322167400000009815812748743656636_" gradientUnits="userSpaceOnUse" x1="-1746.4553" y1="686.8875" x2="-1834.6628" y2="462.8565" gradientTransform="matrix(-0.8789 -0.477 -0.477 0.8789 160.8578 210.4266)">
					<stop  offset="0" style="stop-color:#444B8C"/>
					<stop  offset="0.9964" style="stop-color:#3E4177"/>
				</linearGradient>
				<path style="fill:url(#SVGID_00000139997113287322167400000009815812748743656636_);" d="M1531.886,1565.167
					c30.166-2.29,60.644-39.442,54.487-55.657c-1.761-4.635-5.68-5.37-64.731-15.098c-29.326-4.829-43.983-6.821-54.117,1.283
					c-6.187,4.946-11.015,13.767-12.54,22.098c-0.783,4.288-0.824,10.192-0.09,21.952c0.653,10.437,0.46,9.98,0.732,13.063
					c0.651,7.405,2.67,20.431,9.889,38.488c3.008-3.298,6.99-7.236,12.017-11.118c1.933-1.494,9.586-7.277,18.287-10.782
					C1510.796,1563.364,1522.095,1565.912,1531.886,1565.167z"/>
				
					<linearGradient id="SVGID_00000076581778280465544580000010562855094699058853_" gradientUnits="userSpaceOnUse" x1="-87.0951" y1="1674.3507" x2="10.0189" y2="1485.5178" gradientTransform="matrix(-1 0 0 1 1460.9358 0)">
					<stop  offset="0" style="stop-color:#FFC444"/>
					<stop  offset="0.9964" style="stop-color:#F36F56"/>
				</linearGradient>
				<path style="fill:url(#SVGID_00000076581778280465544580000010562855094699058853_);" d="M1454.495,1571.171
					c0,0,1.343,28.863,28.539,41.536c24.353,11.345,56.672-39.498,47.781-58.913c-2.965-6.477-12.152-13.521-21.564-15.704
					c-5.56-1.29-8.286-0.178-17.329-2.461c-8.339-2.105-9.959-4.046-13.18-3.396c-4.028,0.81-9.162,5.393-13.001,23.332
					c-1.998-7-6.43-11.692-11.23-11.98c-0.765-0.046-2.983,0.168-4.801,1.335C1443.123,1549.144,1444.41,1559.845,1454.495,1571.171
					z"/>
			</g>
			<g>
				
					<linearGradient id="SVGID_00000100344387326509307050000017738487715101754266_" gradientUnits="userSpaceOnUse" x1="1419.6008" y1="2223.2366" x2="2201.2471" y2="1232.2211">
					<stop  offset="0" style="stop-color:#FFC444"/>
					<stop  offset="0.9964" style="stop-color:#F36F56"/>
				</linearGradient>
				<path style="fill:url(#SVGID_00000100344387326509307050000017738487715101754266_);" d="M2100.664,1993.132l-1336.53,13.3
					c-13.993,0.17-25.347,10.941-25.347,24.056v397.828c0,13.116,11.354,23.441,25.347,23.061l1336.53-41.039
					c12.293-0.333,22.248-10.558,22.248-22.836v-372.41C2122.912,2002.816,2112.957,1992.984,2100.664,1993.132z"/>
				<path style="opacity:0.48;fill:#FFFFFF;" d="M2062.034,2034.093l-1254.085,14.865c-12.768,0.175-23.125,10.031-23.125,22.012
					v315.055c0,11.983,10.357,21.433,23.125,21.104l1254.085-36.234c11.28-0.289,20.419-9.645,20.419-20.897v-295.811
					C2082.453,2042.936,2073.314,2033.939,2062.034,2034.093z"/>
			</g>
			
				<linearGradient id="SVGID_00000120531722310967108480000008211173262326764429_" gradientUnits="userSpaceOnUse" x1="831.92" y1="2553.9688" x2="1022.5513" y2="1474.9265">
				<stop  offset="0" style="stop-color:#311944"/>
				<stop  offset="1" style="stop-color:#893976"/>
			</linearGradient>
			<path style="fill:url(#SVGID_00000120531722310967108480000008211173262326764429_);" d="M803.8,2153.646
				c-40.773-19.986-128.797-71.168-155.861-165.454c-45.058-156.962,115.188-306.681,197.918-362.701
				c94.852-64.23,190.164-74.602,248.086-80.905c71.862-7.821,115.723-12.592,148.667,14.387
				c85.199,69.776,33.986,300.013-50.355,323.714c-27.611,7.758-38.06-12.439-95.915-26.378
				c-18.841-4.538-159.466-38.415-232.592,35.968c-51.18,52.061-57.718,145.37-21.581,232.595
				C829.377,2134.463,816.588,2144.055,803.8,2153.646z"/>
			
				<linearGradient id="SVGID_00000052080878207085687160000008683578812051883922_" gradientUnits="userSpaceOnUse" x1="840.1037" y1="2248.6125" x2="860.8314" y2="2131.2864">
				<stop  offset="0" style="stop-color:#FFC444"/>
				<stop  offset="0.9964" style="stop-color:#F36F56"/>
			</linearGradient>
			<path style="fill:url(#SVGID_00000052080878207085687160000008683578812051883922_);" d="M812.029,2147.476l21.587-16.191
				c0,0,13.543,9.378,30.097,8.094c9.021-0.698,20.994,4.719,23.692,7.586c2.698,2.864,15.272,9.75-2.727,7.952
				c-17.996-1.799-20.885,3.217-18.378,12.209c2.507,8.992,17.525,34.169,25.153,39.564c7.628,5.396-14.254,8.992-23.246,5.697
				c-8.991-3.299-23.379-9.293-33.869-28.775C830.513,2176.506,812.029,2147.476,812.029,2147.476z"/>
		</g>
	</g>
</g>
</svg>
